<?xml version="1.0" encoding="UTF-8"?>
<svg xmlns="http://www.w3.org/2000/svg" xmlns:xlink="http://www.w3.org/1999/xlink" width="74px" height="64px" viewBox="0 0 73 64" version="1.1">
<g id="surface1">
<path style=" stroke:none;fill-rule:evenodd;fill:rgb(0%,0%,0%);fill-opacity:1;" d="M 67.398438 59.925781 L 62.132812 44.328125 C 61.902344 43.644531 61.515625 43.003906 60.824219 43.003906 L 57.875 43.003906 L 59.851562 38.957031 L 60.824219 38.957031 C 62.472656 38.957031 63.71875 39.664062 64.660156 40.753906 C 65.273438 41.460938 65.664062 42.257812 65.925781 43.03125 L 73 63.976562 L 0 63.976562 L 6.328125 43.140625 C 6.617188 42.207031 7.105469 41.234375 7.851562 40.484375 L 7.867188 40.484375 C 8.789062 39.554688 9.96875 38.957031 11.464844 38.957031 L 13.421875 38.957031 L 15.574219 43.003906 L 11.464844 43.003906 C 10.769531 43.003906 10.355469 43.664062 10.15625 44.328125 L 5.414062 59.925781 Z M 25.421875 28.289062 L 34.769531 18.761719 L 34.769531 15.742188 L 30.546875 15.742188 L 30.546875 12.410156 L 34.769531 12.410156 L 34.769531 8.523438 L 38.070312 8.523438 L 38.070312 12.410156 L 42.453125 12.410156 L 42.453125 15.742188 L 38.070312 15.742188 L 38.070312 18.59375 L 47.578125 28.289062 L 44.792969 30.652344 L 44.183594 30.019531 L 44.183594 36.464844 L 38.324219 36.464844 L 38.324219 31.195312 L 34.628906 31.195312 L 34.628906 36.464844 L 28.820312 36.464844 L 28.820312 30.007812 L 28.210938 30.652344 Z M 36.5 23.703125 C 37.710938 23.703125 38.695312 24.695312 38.695312 25.914062 C 38.695312 27.136719 37.710938 28.128906 36.5 28.128906 C 35.289062 28.128906 34.308594 27.136719 34.308594 25.914062 C 34.308594 24.695312 35.289062 23.703125 36.5 23.703125 Z M 39.59375 55.105469 C 38.847656 55.636719 37.960938 55.925781 37.050781 55.929688 C 36.230469 55.929688 35.40625 55.707031 34.679688 55.242188 L 34.667969 55.226562 C 32.402344 53.773438 30.3125 52.171875 28.414062 50.464844 C 26.453125 48.710938 24.683594 46.820312 23.128906 44.847656 C 21.027344 42.1875 19.304688 39.371094 17.988281 36.507812 C 16.644531 33.574219 15.71875 30.5625 15.246094 27.585938 C 14.75 24.492188 14.742188 21.460938 15.242188 18.597656 C 15.746094 15.730469 16.757812 13.019531 18.296875 10.578125 C 18.914062 9.609375 19.628906 8.660156 20.4375 7.757812 C 21.207031 6.878906 22.074219 6.054688 23.027344 5.292969 C 25.167969 3.574219 27.476562 2.25 29.863281 1.363281 C 32.28125 0.460938 34.800781 0.0078125 37.324219 0.0234375 C 39.835938 0.0429688 42.320312 0.527344 44.683594 1.5 C 46.972656 2.453125 49.152344 3.832031 51.136719 5.664062 C 51.839844 6.300781 52.507812 7.019531 53.132812 7.789062 C 53.769531 8.570312 54.335938 9.378906 54.832031 10.199219 C 56.46875 12.929688 57.476562 15.996094 57.898438 19.226562 C 58.324219 22.503906 58.15625 25.96875 57.449219 29.4375 C 56.375 34.683594 54.136719 39.75 51.039062 44.175781 C 47.988281 48.535156 44.074219 52.324219 39.59375 55.105469 Z M 37.660156 51.921875 C 37.3125 52.179688 36.835938 52.214844 36.445312 51.964844 C 32.238281 49.261719 28.695312 46.015625 25.921875 42.492188 C 22.085938 37.640625 19.671875 32.261719 18.84375 27.078125 C 18.003906 21.824219 18.789062 16.773438 21.382812 12.660156 C 22.402344 11.035156 23.707031 9.558594 25.300781 8.28125 C 28.957031 5.339844 33.136719 3.789062 37.292969 3.820312 C 41.304688 3.847656 45.257812 5.355469 48.675781 8.503906 C 49.878906 9.601562 50.890625 10.867188 51.714844 12.234375 C 54.5 16.863281 55.101562 22.769531 53.875 28.753906 C 51.964844 38.132812 45.824219 46.925781 37.660156 51.921875 Z M 37.660156 51.921875 "/>
</g>
</svg>
