<?xml version="1.0" encoding="UTF-8"?>
<svg xmlns="http://www.w3.org/2000/svg" xmlns:xlink="http://www.w3.org/1999/xlink" width="68px" height="px" viewBox="0 0 67 53" version="1.1">
<g id="surface1">
<path style=" stroke:none;fill-rule:nonzero;fill:rgb(0%,0%,0%);fill-opacity:1;" d="M 6.691406 40.398438 C 6.765625 27.671875 6.835938 14.960938 6.902344 2.269531 C 6.910156 1.425781 7.503906 0.707031 8.320312 0.550781 C 12.875 -0.414062 20.050781 -0.171875 24.925781 1.726562 C 28.359375 2.980469 31.371094 5.203125 33.601562 8.128906 C 35.910156 5.34375 38.902344 3.226562 42.277344 2 C 46.882812 0.21875 53.867188 -0.207031 58.871094 0.550781 C 59.726562 0.667969 60.363281 1.402344 60.371094 2.273438 L 60.371094 40.558594 C 60.371094 41.027344 60.1875 41.476562 59.855469 41.804688 C 59.527344 42.136719 59.085938 42.320312 58.621094 42.316406 C 58.488281 42.316406 58.351562 42.296875 58.21875 42.265625 C 53.945312 41.703125 49.601562 42.117188 45.503906 43.46875 C 42.476562 44.613281 39.605469 46.140625 36.953125 48.011719 C 40.683594 46.835938 44.566406 46.261719 48.472656 46.304688 C 53.480469 46.386719 58.464844 47.027344 63.332031 48.21875 L 63.332031 8.15625 L 65.074219 8.15625 C 66.035156 8.15625 66.816406 8.945312 66.816406 9.917969 L 66.816406 50.527344 C 66.816406 51.5 66.035156 52.292969 65.074219 52.292969 C 64.890625 52.289062 64.707031 52.257812 64.53125 52.199219 C 59.285156 50.734375 53.882812 49.9375 48.445312 49.816406 C 43.636719 49.757812 38.875 50.742188 34.476562 52.707031 C 33.875 53.097656 33.105469 53.097656 32.503906 52.707031 C 28.105469 50.742188 23.339844 49.757812 18.535156 49.816406 C 13.109375 49.941406 7.71875 50.746094 2.484375 52.207031 C 2.308594 52.269531 2.125 52.300781 1.941406 52.300781 C 1.476562 52.304688 1.027344 52.121094 0.695312 51.789062 C 0.367188 51.453125 0.183594 51 0.183594 50.527344 L 0.183594 9.917969 C 0.183594 8.945312 0.964844 8.15625 1.925781 8.15625 L 3.667969 8.15625 L 3.667969 48.21875 C 8.535156 47.027344 13.519531 46.386719 18.527344 46.304688 C 22.714844 46.257812 26.875 46.917969 30.84375 48.269531 C 28.335938 46.214844 25.480469 44.640625 22.417969 43.628906 C 18.621094 42.367188 12.832031 41.941406 8.59375 42.3125 C 8.132812 42.355469 7.667969 42.210938 7.3125 41.910156 C 6.953125 41.605469 6.730469 41.171875 6.691406 40.699219 C 6.6875 40.601562 6.6875 40.5 6.691406 40.398438 Z M 40.113281 35.390625 C 39.742188 35.671875 39.246094 35.722656 38.828125 35.515625 C 38.410156 35.3125 38.136719 34.886719 38.125 34.417969 C 38.109375 33.945312 38.355469 33.507812 38.757812 33.277344 C 40.761719 32.015625 42.910156 31.019531 45.15625 30.308594 C 47.4375 29.527344 49.804688 29.03125 52.207031 28.839844 C 52.894531 28.804688 53.480469 29.335938 53.515625 30.03125 C 53.554688 30.726562 53.027344 31.320312 52.34375 31.359375 C 50.164062 31.542969 48.019531 31.996094 45.949219 32.710938 C 43.902344 33.351562 41.941406 34.25 40.113281 35.390625 Z M 40.222656 25.632812 C 39.644531 26.003906 38.875 25.832031 38.507812 25.246094 C 38.140625 24.65625 38.308594 23.878906 38.890625 23.503906 C 40.886719 22.273438 43.023438 21.296875 45.253906 20.59375 C 47.5 19.832031 49.828125 19.347656 52.183594 19.152344 C 52.855469 19.140625 53.414062 19.667969 53.453125 20.347656 C 53.488281 21.027344 52.988281 21.613281 52.320312 21.675781 C 50.175781 21.855469 48.054688 22.296875 46.015625 22.992188 C 43.984375 23.628906 42.039062 24.515625 40.222656 25.632812 Z M 40.257812 15.90625 C 39.671875 16.277344 38.902344 16.101562 38.535156 15.511719 C 38.167969 14.921875 38.339844 14.140625 38.921875 13.765625 C 40.914062 12.542969 43.050781 11.570312 45.277344 10.871094 C 47.515625 10.113281 49.835938 9.632812 52.183594 9.441406 C 52.871094 9.402344 53.457031 9.9375 53.496094 10.632812 C 53.53125 11.328125 53.007812 11.921875 52.320312 11.957031 C 50.179688 12.140625 48.070312 12.582031 46.035156 13.273438 C 44.011719 13.90625 42.070312 14.792969 40.257812 15.90625 Z M 28.242188 33.277344 C 28.644531 33.507812 28.890625 33.945312 28.875 34.417969 C 28.863281 34.886719 28.589844 35.3125 28.171875 35.515625 C 27.753906 35.722656 27.257812 35.671875 26.886719 35.390625 C 25.066406 34.253906 23.113281 33.351562 21.070312 32.710938 C 19.003906 31.996094 16.855469 31.542969 14.679688 31.359375 C 13.992188 31.316406 13.46875 30.71875 13.511719 30.027344 C 13.550781 29.332031 14.140625 28.800781 14.824219 28.839844 C 17.226562 29.03125 19.59375 29.527344 21.875 30.308594 C 24.121094 31.019531 26.273438 32.015625 28.273438 33.277344 Z M 28.109375 23.503906 C 28.691406 23.882812 28.855469 24.667969 28.480469 25.253906 C 28.105469 25.84375 27.335938 26.011719 26.753906 25.632812 C 24.9375 24.515625 22.992188 23.628906 20.964844 22.992188 C 18.921875 22.296875 16.804688 21.855469 14.65625 21.675781 C 13.96875 21.628906 13.449219 21.023438 13.496094 20.328125 C 13.542969 19.632812 14.136719 19.105469 14.824219 19.152344 C 17.183594 19.347656 19.511719 19.832031 21.753906 20.59375 C 23.988281 21.296875 26.125 22.273438 28.121094 23.503906 Z M 28.078125 13.765625 C 28.484375 13.992188 28.734375 14.425781 28.726562 14.898438 C 28.71875 15.367188 28.453125 15.792969 28.039062 16.003906 C 27.625 16.214844 27.132812 16.175781 26.753906 15.90625 C 24.941406 14.792969 23 13.90625 20.972656 13.273438 C 18.9375 12.582031 16.828125 12.140625 14.691406 11.957031 C 14.003906 11.921875 13.480469 11.328125 13.515625 10.632812 C 13.554688 9.9375 14.140625 9.402344 14.824219 9.441406 C 17.175781 9.632812 19.496094 10.113281 21.734375 10.871094 C 23.960938 11.570312 26.09375 12.542969 28.089844 13.765625 Z M 56.882812 3.847656 C 52.859375 3.460938 47.089844 3.914062 43.472656 5.304688 C 40.109375 6.496094 37.226562 8.777344 35.269531 11.792969 L 35.269531 44.910156 C 38.085938 42.953125 41.128906 41.355469 44.332031 40.152344 C 48.382812 38.835938 52.636719 38.300781 56.882812 38.574219 Z M 31.785156 44.570312 L 31.785156 11.746094 C 29.964844 8.484375 27.019531 6.308594 23.691406 5.015625 C 19.894531 3.550781 14.066406 3.21875 10.375 3.753906 L 10.179688 38.683594 C 14.207031 38.535156 19.769531 39.058594 23.472656 40.28125 C 26.449219 41.261719 29.253906 42.707031 31.785156 44.570312 Z M 31.785156 44.570312 "/>
</g>
</svg>
